<!DOCTYPE svg PUBLIC "-//W3C//DTD SVG 1.1//EN" "http://www.w3.org/Graphics/SVG/1.1/DTD/svg11.dtd">
<!-- Uploaded to: SVG Repo, www.svgrepo.com, Transformed by: SVG Repo Mixer Tools -->
<svg width="64px" height="64px" viewBox="0 0 24 24" fill="none" xmlns="http://www.w3.org/2000/svg">
<g id="SVGRepo_bgCarrier" stroke-width="0"/>
<g id="SVGRepo_tracerCarrier" stroke-linecap="round" stroke-linejoin="round"/>
<g id="SVGRepo_iconCarrier">
<path d="M19 12H22M19 12C19 13.933 18.2165 15.683 16.9497 16.9497M19 12C19 10.067 18.2165 8.317 16.9497 7.05025M12 19V22M12 19C13.933 19 15.683 18.2165 16.9497 16.9497M12 19C10.067 19 8.317 18.2165 7.05025 16.9497M5 12C5 8.13401 8.13401 5 12 5M5 12H2M5 12C5 13.933 5.7835 15.683 7.05025 16.9497M12 5V2M12 5C13.933 5 15.683 5.7835 16.9497 7.05025M12 2H14M12 2H10M12 22H14M12 22H10M22 12V10M22 12V14M2 12V10M2 12V14M19.5 4.5L18 3M19.5 4.5L21 6M19.5 4.5L16.9497 7.05025M4.5 4.5L6 3M4.5 4.5L3 6M4.5 4.5L7 7M4.5 19.5L6 21M4.5 19.5L3 18M4.5 19.5L7.05025 16.9497M19.5 19.5L18 21M19.5 19.5L21 18M19.5 19.5L16.9497 16.9497" stroke="#0050c8" stroke-linecap="round" stroke-linejoin="round" stroke-width="2"/>
<path d="M14 14H14.001" stroke="#0050c8" stroke-linecap="round" stroke-linejoin="round" stroke-width="2"/>
<circle cx="10.5" cy="10.5" r="1.5" stroke="#0050c8" stroke-linecap="round" stroke-linejoin="round" stroke-width="2"/>
</g>
</svg>